<svg xmlns="http://www.w3.org/2000/svg" viewBox="0 0 48 48" width="48" height="48">
  <!-- Marca monocroma (violeta) sobre fondo transparente: cerebro abierto + libro -->
  <g fill="#8B5CF6">
    <path fill-rule="evenodd" clip-rule="evenodd" d="M14.5 20.4C12 20.4 10.6 18.5 11.2 16.5C9.8 15 10.2 12.3 12.1 11.5C11.8 9.4 13.5 7.8 15.6 8.1C16.1 6.4 18.4 5.8 20 6.9C20.9 5.7 23 5.8 24 7.1C25 5.8 27.1 5.7 28 6.9C29.6 5.8 31.9 6.4 32.4 8.1C34.5 7.8 36.2 9.4 35.9 11.5C37.8 12.3 38.2 15 36.8 16.5C37.4 18.5 36 20.4 33.5 20.4C30 21.9 27 22.1 24 21.3C21 22.1 18 21.9 14.5 20.4ZM24 8.6C23.3 11 23.3 16 24 19C24.7 16 24.7 11 24 8.6ZM16.6 11C18.5 11.8 19.5 13.6 19.1 15.8C18.5 13.8 17.3 12.4 15.9 11.8C16 11.4 16.3 11.1 16.6 11ZM31.4 11C29.5 11.8 28.5 13.6 28.9 15.8C29.5 13.8 30.7 12.4 32.1 11.8C32 11.4 31.7 11.1 31.4 11Z"/>
    <path fill-rule="evenodd" clip-rule="evenodd" d="M24 29.6C18 26.6 11.5 25.6 7 26.6C6.4 26.7 6.2 27.1 6.4 27.7C8 31.6 8.6 33.6 9 35.5C9.1 36.1 9.8 36.4 10.4 36.1C14.5 34.1 19.6 34.3 24 36.3C28.4 34.3 33.5 34.1 37.6 36.1C38.2 36.4 38.9 36.1 39 35.5C39.4 33.6 40 31.6 41.6 27.7C41.8 27.1 41.6 26.7 41 26.6C36.5 25.6 30 26.6 24 29.6ZM24 31C23.4 33 23.4 34.4 24 35.8C24.6 34.4 24.6 33 24 31ZM11.6 29.9C14.6 29.1 18 29 21 29.7C18 29.5 14.6 29.7 11.8 30.6ZM12.7 32.7C15.3 32 18 31.9 20.6 32.5C18 32.3 15.3 32.5 12.9 33.3ZM36.4 29.9C33.4 29.1 30 29 27 29.7C30 29.5 33.4 29.7 36.2 30.6ZM35.3 32.7C32.7 32 30 31.9 27.4 32.5C30 32.3 32.7 32.5 35.1 33.3Z"/>
  </g>
</svg>
